HIERARCHY
ROOT Hips
{
	OFFSET 53.456799 -8.414035 93.761703
	CHANNELS 6 Xposition Yposition Zposition Xrotation Yrotation Zrotation
	JOINT spine
	{
		OFFSET 0.000000 -0.429886 7.475601
		CHANNELS 3 Xrotation Yrotation Zrotation
		JOINT spine1
		{
			OFFSET 0.000000 -0.000002 9.923012
			CHANNELS 3 Xrotation Yrotation Zrotation
			JOINT spine2
			{
				OFFSET 0.000000 -0.000002 9.508041
				CHANNELS 3 Xrotation Yrotation Zrotation
				JOINT Neck
				{
					OFFSET 0.000000 -1.163844 24.411095
					CHANNELS 3 Xrotation Yrotation Zrotation
					JOINT Head
					{
						OFFSET 0.000000 -0.000001 7.375229
						CHANNELS 3 Xrotation Yrotation Zrotation
						End Site
						{
							OFFSET 0.000000 5.887407 17.852203
						}
					}
				}
				JOINT RightShoulder
				{
					OFFSET -4.003559 0.557467 10.267906
					CHANNELS 3 Xrotation Yrotation Zrotation
					JOINT RightArm
					{
						OFFSET 0.000000 -0.000003 13.467300
						CHANNELS 3 Xrotation Yrotation Zrotation
						JOINT RightArmRoll
						{
							OFFSET 0.000000 -0.000001 6.798584
							CHANNELS 3 Xrotation Yrotation Zrotation
							JOINT RightForeArm
							{
								OFFSET 0.000000 -0.000003 19.801804
								CHANNELS 3 Xrotation Yrotation Zrotation
								JOINT RightForeArmRoll
								{
									OFFSET 0.000000 -0.000002 7.629059
									CHANNELS 3 Xrotation Yrotation Zrotation
									JOINT RightHand
									{
										OFFSET 0.000000 -0.000002 15.309799
										CHANNELS 3 Xrotation Yrotation Zrotation
										End Site
										{
											OFFSET 0.000000 0.000000 0.100006
										}
									}
								}
							}
						}
					}
				}
				JOINT LeftShoulder
				{
					OFFSET 4.003559 0.557467 10.267906
					CHANNELS 3 Xrotation Yrotation Zrotation
					JOINT LeftArm
					{
						OFFSET 0.000000 -0.000003 13.467300
						CHANNELS 3 Xrotation Yrotation Zrotation
						JOINT LeftArmRoll
						{
							OFFSET 0.000000 -0.000001 6.798584
							CHANNELS 3 Xrotation Yrotation Zrotation
							JOINT LeftForeArm
							{
								OFFSET 0.000000 -0.000003 19.801804
								CHANNELS 3 Xrotation Yrotation Zrotation
								JOINT LeftForeArmRoll
								{
									OFFSET 0.000000 -0.000002 7.629044
									CHANNELS 3 Xrotation Yrotation Zrotation
									JOINT LeftHand
									{
										OFFSET 0.000000 -0.000002 15.309799
										CHANNELS 3 Xrotation Yrotation Zrotation
										End Site
										{
											OFFSET 0.000000 0.000000 0.100006
										}
									}
								}
							}
						}
					}
				}
			}
		}
	}
	JOINT RightUpLeg
	{
		OFFSET -6.626091 1.019270 -1.215050
		CHANNELS 3 Xrotation Yrotation Zrotation
		JOINT RightUpLegRoll
		{
			OFFSET 0.000000 -0.000003 17.951698
			CHANNELS 3 Xrotation Yrotation Zrotation
			JOINT RightLeg
			{
				OFFSET 0.000000 0.000004 -22.230400
				CHANNELS 3 Xrotation Yrotation Zrotation
				JOINT RightLegRoll
				{
					OFFSET 0.000000 -0.000004 22.303200
					CHANNELS 3 Xrotation Yrotation Zrotation
					JOINT RightFoot
					{
						OFFSET 0.000000 -0.000003 18.563599
						CHANNELS 3 Xrotation Yrotation Zrotation
						JOINT RightToeBase
						{
							OFFSET 0.000000 -0.000002 15.518295
							CHANNELS 3 Xrotation Yrotation Zrotation
							End Site
							{
								OFFSET 0.006577 0.866261 7.515396
							}
						}
					}
				}
			}
		}
	}
	JOINT LeftUpLeg
	{
		OFFSET 6.626091 1.019270 -1.215050
		CHANNELS 3 Xrotation Yrotation Zrotation
		JOINT LeftUpLegRoll
		{
			OFFSET 0.000000 -0.000003 17.951797
			CHANNELS 3 Xrotation Yrotation Zrotation
			JOINT LeftLeg
			{
				OFFSET 0.000000 -0.000003 22.230309
				CHANNELS 3 Xrotation Yrotation Zrotation
				JOINT LeftLegRoll
				{
					OFFSET 0.000000 -0.000004 22.509308
					CHANNELS 3 Xrotation Yrotation Zrotation
					JOINT LeftFoot
					{
						OFFSET 0.000000 -0.000003 18.357498
						CHANNELS 3 Xrotation Yrotation Zrotation
						JOINT LeftToeBase
						{
							OFFSET 0.000000 -0.000003 15.518295
							CHANNELS 3 Xrotation Yrotation Zrotation
							End Site
							{
								OFFSET -0.029476 0.866262 7.515381
							}
						}
					}
				}
			}
		}
	}
}
MOTION
Frames: 5
Frame Time: 0.041667
52.966797 -7.697217 93.606491 -2.618252 2.064924 -0.104261 -1.420382 0.114132 0.009527 1.162010 0.232894 0.021218 2.807082 0.233125 0.018425 3.667521 -14.256240 -2.424780 14.482105 -11.268618 1.979416 -17.276975 -12.831248 -19.738784 -151.600884 -173.946217 -81.907977 -0.000003 0.000000 -0.000003 57.877657 -3.063203 2.756465 -0.000003 0.000002 -3.009631 -5.000195 -7.999294 0.000100 -2.987595 78.256080 5.398046 -76.602552 102.744924 52.907482 -0.000003 -0.000025 0.000007 1.310029 3.029080 0.774933 0.000001 0.000006 3.007349 -5.000243 7.999082 -0.000127 0.488263 176.635126 -2.804158 -179.999991 0.000005 -0.978993 173.983168 -2.094412 -0.444694 -0.000001 -0.000003 0.046419 68.440483 6.859476 2.243813 25.456969 -7.355620 0.000002 -2.321430 177.190311 2.258947 -0.000005 -0.000004 -1.043380 -9.629219 1.979416 0.453468 -0.000000 0.000002 -0.169299 70.447493 -6.830161 -2.198413 25.456964 7.355613 -0.000000 
52.987797 -7.701937 93.608398 -2.626447 2.065880 -0.105086 -1.420101 0.113526 0.009673 1.162310 0.231108 0.022180 2.807373 0.231348 0.019407 3.648334 -14.194643 -2.417910 14.485399 -11.259234 1.979135 -17.281721 -12.915363 -19.748322 -151.530561 -173.883325 -81.929116 -0.000002 0.000000 -0.000003 57.595078 -2.990068 2.680815 -0.000003 -0.000000 -3.009619 -5.000195 -7.999293 0.000100 -3.017261 78.237945 5.427931 -76.603290 102.752608 52.902335 -0.000002 -0.000025 0.000005 1.329238 3.021958 0.774841 0.000001 0.000007 3.007341 -5.000245 7.999080 -0.000124 0.495476 176.633118 -2.805158 -179.999991 0.000005 -0.980004 173.976611 -2.092389 -0.444723 -0.000001 -0.000003 0.046456 68.444171 6.859493 2.243488 25.456969 -7.355619 0.000001 -2.309425 177.191281 2.259328 -0.000005 -0.000004 -1.043580 -9.626136 1.977610 0.453372 0.000001 0.000002 -0.169132 70.446113 -6.830173 -2.198500 25.456957 7.355613 -0.000000 
52.982197 -7.708556 93.610291 -2.634494 2.067395 -0.105772 -1.419672 0.112838 0.009813 1.162679 0.229041 0.023347 2.807752 0.229288 0.020598 3.627426 -14.132369 -2.410763 14.489519 -11.247967 1.978886 -17.286389 -12.999286 -19.757891 -151.459308 -173.814053 -81.943883 -0.000002 0.000000 -0.000004 57.324596 -2.919906 2.608745 0.000001 0.000001 -3.009599 -5.000195 -7.999291 0.000100 -3.048242 78.218889 5.459149 -76.598359 102.761309 52.890728 -0.000002 -0.000025 0.000006 1.349576 3.013717 0.774748 0.000002 0.000006 3.007331 -5.000245 7.999081 -0.000126 0.502820 176.630140 -2.806597 -179.999991 0.000005 -0.981001 173.970628 -2.090383 -0.444732 -0.000001 -0.000003 0.046485 68.447334 6.859507 2.243195 25.456969 -7.355619 0.000001 -2.297801 177.191254 2.259568 -0.000005 -0.000004 -1.043770 -9.623293 1.975734 0.453351 0.000000 0.000002 -0.168953 70.444980 -6.830254 -2.198385 25.456953 7.355613 -0.000000 
52.979595 -7.701620 93.606392 -2.642432 2.069349 -0.106402 -1.419133 0.112082 0.009946 1.163119 0.226727 0.024679 2.808193 0.226986 0.021957 3.605088 -14.069213 -2.403186 14.494681 -11.235283 1.978897 -17.290998 -13.083216 -19.767254 -151.387332 -173.739167 -81.952687 -0.000002 0.000001 -0.000003 57.063597 -2.852137 2.539542 -0.000003 0.000001 -3.009580 -5.000198 -7.999292 0.000099 -3.080502 78.199123 5.491667 -76.589035 102.770981 52.874195 -0.000002 -0.000025 0.000008 1.370793 3.004532 0.774655 0.000003 0.000006 3.007322 -5.000244 7.999081 -0.000124 0.510225 176.627135 -2.808399 -179.999991 0.000005 -0.981998 173.965041 -2.087373 -0.444620 -0.000001 -0.000003 0.046510 68.450073 6.859527 2.242928 25.456971 -7.355619 0.000001 -2.286477 177.191240 2.259663 -0.000004 -0.000004 -1.043970 -9.620610 1.973807 0.453394 -0.000000 0.000002 -0.168764 70.444133 -6.830273 -2.198440 25.456955 7.355613 -0.000001 
52.994595 -7.711185 93.608795 -2.650261 2.071644 -0.107056 -1.418494 0.111266 0.010073 1.163599 0.224210 0.026137 2.808672 0.224480 0.023445 3.581574 -14.004873 -2.395040 14.500705 -11.221397 1.979248 -17.295332 -13.166977 -19.776099 -151.314809 -173.659431 -81.955658 -0.000003 0.000001 -0.000003 56.809402 -2.786164 2.472537 -0.000002 0.000001 -3.009561 -5.000197 -7.999290 0.000100 -3.114084 78.179035 5.525559 -76.576393 102.781342 52.853735 -0.000003 -0.000025 0.000006 1.392651 2.994578 0.774572 0.000002 0.000006 3.007310 -5.000242 7.999082 -0.000125 0.517604 176.624143 -2.810490 -179.999991 0.000005 -0.982996 173.959659 -2.085369 -0.445603 -0.000001 -0.000003 0.046530 68.452511 6.859557 2.242583 25.456967 -7.355619 0.000001 -2.275388 177.190215 2.259689 -0.000005 -0.000004 -1.044160 -9.618037 1.971860 0.453488 0.000000 0.000002 -0.168565 70.443498 -6.830297 -2.198382 25.456957 7.355613 -0.000000 
